{"title":"The Meg 2018 HC HDRip AAC 2.0 x264 [MW]","magnet":"magnet:?xt=urn:btih:6c00acd42a8ebaec2ffc82cc2c319636f9a132f0&dn=The+Meg+2018+HC+HDRip+AAC+2.0+x264+%5BMW%5D&tr=udp%3A%2F%2Ftracker.leechers-paradise.org%3A6969&tr=udp%3A%2F%2Fzer0day.ch%3A1337&tr=udp%3A%2F%2Fopen.demonii.com%3A1337&tr=udp%3A%2F%2Ftracker.coppersurfer.tk%3A6969&tr=udp%3A%2F%2Fexodus.desync.com%3A6969","uploader":"MFreaky","categoryP":"video","categoryS":"movies","size":"893955356","seeders":"0","leechers":"0","description":" <a href=\"https://pichub.site/image/EEXud\" rel=\"nofollow\" target=\"_NEW\">https://pichub.site/image/EEXud</a> <a href=\"\nhttps://pichub.site/image/EEPEv\" rel=\"nofollow\" target=\"_NEW\">\nhttps://pichub.site/image/EEPEv</a> <a href=\"\nhttps://pichub.site/image/EEns9\" rel=\"nofollow\" target=\"_NEW\">\nhttps://pichub.site/image/EEns9</a> <a href=\"\nhttps://pichub.site/image/EE3au\" rel=\"nofollow\" target=\"_NEW\">\nhttps://pichub.site/image/EE3au</a> <a href=\"\nhttps://pichub.site/image/EEZ8R\" rel=\"nofollow\" target=\"_NEW\">\nhttps://pichub.site/image/EEZ8R</a> <a href=\"\nhttps://pichub.site/image/EE15s\" rel=\"nofollow\" target=\"_NEW\">\nhttps://pichub.site/image/EE15s</a>\r\n\r\nIMDB <a href=\"\nhttps://www.imdb.com/title/tt4779682/\" rel=\"nofollow\" target=\"_NEW\">\nhttps://www.imdb.com/title/tt4779682/</a>\r\n\r\nVideo\r\nFormat                                   : AVC\r\nFormat/Info                              : Advanced Video Codec\r\nFormat profile                           : High@L4.1\r\nFormat settings                          : CABAC / 4 Ref Frames\r\nFormat settings, CABAC                   : Yes\r\nFormat settings, RefFrames               : 4 frames\r\nCodec ID                                 : V_MPEG4/ISO/AVC\r\nDuration                                 : 1 h 49 min\r\nBit rate                                 : 1 000 kb/s\r\nWidth                                    : 720 pixels\r\nHeight                                   : 302 pixels\r\nDisplay aspect ratio                     : 2.40:1\r\nFrame rate mode                          : Constant\r\nFrame rate                               : 24.000 FPS\r\nColor space                              : YUV\r\nChroma subsampling                       : 4:2:0\r\nBit depth                                : 8 bits\r\nScan type                                : Progressive\r\nBits/(Pixel*Frame)                       : 0.192\r\nStream size                              : 775 MiB (91%)\r\nWriting library                          : x264 core 155 r2901 7d0ff22\r\n\r\nAudio\r\nFormat                                   : AAC\r\nFormat/Info                              : Advanced Audio Codec\r\nFormat profile                           : LC\r\nCodec ID                                 : A_AAC-2\r\nDuration                                 : 1 h 49 min\r\nBit rate                                 : 96.0 kb/s\r\nChannel(s)                               : 2 channels\r\nChannel positions                        : Front: L R\r\nSampling rate                            : 48.0 kHz\r\nFrame rate                               : 46.875 FPS (1024 SPF)\r\nCompression mode                         : Lossy\r\nStream size                              : 75.5 MiB (9%)\r\nLanguage                                 : English","last_updated":"2018-09-17T12:24:34.327Z","parsed":{"xt":"urn:btih:6c00acd42a8ebaec2ffc82cc2c319636f9a132f0","dn":"The Meg 2018 HC HDRip AAC 2.0 x264 [MW]","tr":["udp://exodus.desync.com:6969","udp://open.demonii.com:1337","udp://tracker.coppersurfer.tk:6969","udp://tracker.leechers-paradise.org:6969","udp://zer0day.ch:1337"],"infoHash":"6c00acd42a8ebaec2ffc82cc2c319636f9a132f0","infoHashBuffer":{"type":"Buffer","data":[108,0,172,212,42,142,186,236,47,252,130,204,44,49,150,54,249,161,50,240]},"name":"The Meg 2018 HC HDRip AAC 2.0 x264 [MW]","announce":["udp://exodus.desync.com:6969","udp://open.demonii.com:1337","udp://tracker.coppersurfer.tk:6969","udp://tracker.leechers-paradise.org:6969","udp://zer0day.ch:1337"],"urlList":[]}}